<svg width="357" height="36" viewBox="0 0 357 36" fill="none" xmlns="http://www.w3.org/2000/svg">
<path d="M3.576 35.384C2.68 35.384 1.992 35.128 1.512 34.616C1.032 34.104 0.792 33.4 0.792 32.504V3.656C0.792 2.728 1.048 2.024 1.56 1.544C2.072 1.032 2.776 0.775997 3.672 0.775997C4.472 0.775997 5.096 0.935998 5.544 1.256C6.024 1.544 6.456 2.056 6.84 2.792L18.696 24.728H17.16L29.016 2.792C29.4 2.056 29.816 1.544 30.264 1.256C30.712 0.935998 31.336 0.775997 32.136 0.775997C33.032 0.775997 33.72 1.032 34.2 1.544C34.68 2.024 34.92 2.728 34.92 3.656V32.504C34.92 33.4 34.68 34.104 34.2 34.616C33.752 35.128 33.064 35.384 32.136 35.384C31.24 35.384 30.552 35.128 30.072 34.616C29.592 34.104 29.352 33.4 29.352 32.504V10.28H30.408L20.328 28.664C20.008 29.208 19.672 29.608 19.32 29.864C18.968 30.12 18.488 30.248 17.88 30.248C17.272 30.248 16.776 30.12 16.392 29.864C16.008 29.576 15.672 29.176 15.384 28.664L5.208 10.232H6.36V32.504C6.36 33.4 6.12 34.104 5.64 34.616C5.192 35.128 4.504 35.384 3.576 35.384ZM49.5199 35.48C47.8239 35.48 46.3039 35.16 44.9599 34.52C43.6479 33.848 42.6079 32.952 41.8399 31.832C41.1039 30.712 40.7359 29.448 40.7359 28.04C40.7359 26.312 41.1839 24.952 42.0799 23.96C42.9759 22.936 44.4319 22.2 46.4479 21.752C48.4639 21.304 51.1679 21.08 54.5599 21.08H56.9599V24.536H54.6079C52.6239 24.536 51.0399 24.632 49.8559 24.824C48.6719 25.016 47.8239 25.352 47.3119 25.832C46.8319 26.28 46.5919 26.92 46.5919 27.752C46.5919 28.808 46.9599 29.672 47.6959 30.344C48.4319 31.016 49.4559 31.352 50.7679 31.352C51.8239 31.352 52.7519 31.112 53.5519 30.632C54.3839 30.12 55.0399 29.432 55.5199 28.568C55.9999 27.704 56.2399 26.712 56.2399 25.592V20.072C56.2399 18.472 55.8879 17.32 55.1839 16.616C54.4799 15.912 53.2959 15.56 51.6319 15.56C50.7039 15.56 49.6959 15.672 48.6079 15.896C47.5519 16.12 46.4319 16.504 45.2479 17.048C44.6399 17.336 44.0959 17.416 43.6159 17.288C43.1679 17.16 42.8159 16.904 42.5599 16.52C42.3039 16.104 42.1759 15.656 42.1759 15.176C42.1759 14.696 42.3039 14.232 42.5599 13.784C42.8159 13.304 43.2479 12.952 43.8559 12.728C45.3279 12.12 46.7359 11.688 48.0799 11.432C49.4559 11.176 50.7039 11.048 51.8239 11.048C54.1279 11.048 56.0159 11.4 57.4879 12.104C58.9919 12.808 60.1119 13.88 60.8479 15.32C61.5839 16.728 61.9519 18.552 61.9519 20.792V32.312C61.9519 33.304 61.7119 34.072 61.2319 34.616C60.7519 35.128 60.0639 35.384 59.1679 35.384C58.2719 35.384 57.5679 35.128 57.0559 34.616C56.5759 34.072 56.3359 33.304 56.3359 32.312V30.008H56.7199C56.4959 31.128 56.0479 32.104 55.3759 32.936C54.7359 33.736 53.9199 34.36 52.9279 34.808C51.9359 35.256 50.7999 35.48 49.5199 35.48ZM71.1139 35.384C70.1219 35.384 69.3539 35.128 68.8099 34.616C68.2979 34.072 68.0419 33.304 68.0419 32.312V14.168C68.0419 13.176 68.2979 12.424 68.8099 11.912C69.3219 11.4 70.0419 11.144 70.9699 11.144C71.8979 11.144 72.6179 11.4 73.1299 11.912C73.6419 12.424 73.8979 13.176 73.8979 14.168V17.192H73.4179C73.8659 15.272 74.7459 13.816 76.0579 12.824C77.3699 11.832 79.1139 11.24 81.2899 11.048C81.9619 10.984 82.4899 11.16 82.8739 11.576C83.2899 11.96 83.5299 12.568 83.5939 13.4C83.6579 14.2 83.4659 14.856 83.0179 15.368C82.6019 15.848 81.9619 16.136 81.0979 16.232L80.0419 16.328C78.0899 16.52 76.6179 17.128 75.6259 18.152C74.6339 19.144 74.1379 20.552 74.1379 22.376V32.312C74.1379 33.304 73.8819 34.072 73.3699 34.616C72.8579 35.128 72.1059 35.384 71.1139 35.384ZM97.3118 35.48C94.8478 35.48 92.7038 34.984 90.8798 33.992C89.0558 32.968 87.6478 31.528 86.6558 29.672C85.6638 27.816 85.1678 25.64 85.1678 23.144C85.1678 21.256 85.4398 19.576 85.9838 18.104C86.5598 16.6 87.3758 15.336 88.4318 14.312C89.4878 13.256 90.7678 12.456 92.2718 11.912C93.7758 11.336 95.4558 11.048 97.3118 11.048C98.3678 11.048 99.5038 11.192 100.72 11.48C101.968 11.768 103.136 12.248 104.224 12.92C104.736 13.24 105.072 13.624 105.232 14.072C105.392 14.52 105.424 14.984 105.328 15.464C105.232 15.912 105.024 16.312 104.704 16.664C104.416 16.984 104.048 17.192 103.6 17.288C103.152 17.352 102.656 17.24 102.112 16.952C101.408 16.536 100.688 16.232 99.9518 16.04C99.2158 15.816 98.5118 15.704 97.8398 15.704C96.7838 15.704 95.8558 15.88 95.0558 16.232C94.2558 16.552 93.5678 17.032 92.9918 17.672C92.4478 18.28 92.0318 19.048 91.7438 19.976C91.4558 20.904 91.3118 21.976 91.3118 23.192C91.3118 25.56 91.8718 27.432 92.9918 28.808C94.1438 30.152 95.7598 30.824 97.8398 30.824C98.5118 30.824 99.1998 30.728 99.9038 30.536C100.64 30.344 101.376 30.04 102.112 29.624C102.656 29.336 103.136 29.24 103.552 29.336C104 29.432 104.368 29.656 104.656 30.008C104.944 30.328 105.12 30.728 105.184 31.208C105.248 31.656 105.184 32.104 104.992 32.552C104.832 33 104.512 33.368 104.032 33.656C102.976 34.296 101.856 34.76 100.672 35.048C99.4878 35.336 98.3678 35.48 97.3118 35.48ZM120.204 35.48C117.548 35.48 115.26 34.984 113.34 33.992C111.42 33 109.932 31.592 108.876 29.768C107.852 27.944 107.34 25.784 107.34 23.288C107.34 20.856 107.836 18.728 108.828 16.904C109.852 15.08 111.244 13.656 113.004 12.632C114.796 11.576 116.828 11.048 119.1 11.048C120.764 11.048 122.252 11.32 123.564 11.864C124.908 12.408 126.044 13.192 126.972 14.216C127.932 15.24 128.652 16.488 129.132 17.96C129.644 19.4 129.9 21.032 129.9 22.856C129.9 23.432 129.692 23.88 129.276 24.2C128.892 24.488 128.332 24.632 127.596 24.632H112.188V21.176H125.676L124.908 21.896C124.908 20.424 124.684 19.192 124.236 18.2C123.82 17.208 123.196 16.456 122.364 15.944C121.564 15.4 120.556 15.128 119.34 15.128C117.996 15.128 116.844 15.448 115.884 16.088C114.956 16.696 114.236 17.576 113.724 18.728C113.244 19.848 113.004 21.192 113.004 22.76V23.096C113.004 25.72 113.612 27.688 114.828 29C116.076 30.28 117.9 30.92 120.3 30.92C121.132 30.92 122.06 30.824 123.084 30.632C124.14 30.408 125.132 30.04 126.06 29.528C126.732 29.144 127.324 28.984 127.836 29.048C128.348 29.08 128.748 29.256 129.036 29.576C129.356 29.896 129.548 30.296 129.612 30.776C129.676 31.224 129.58 31.688 129.324 32.168C129.1 32.648 128.7 33.064 128.124 33.416C127.004 34.12 125.708 34.648 124.236 35C122.796 35.32 121.452 35.48 120.204 35.48ZM142.667 35.48C140.011 35.48 138.011 34.728 136.667 33.224C135.323 31.688 134.651 29.448 134.651 26.504V3.8C134.651 2.808 134.907 2.056 135.419 1.544C135.931 1.032 136.667 0.775997 137.627 0.775997C138.587 0.775997 139.323 1.032 139.835 1.544C140.379 2.056 140.651 2.808 140.651 3.8V26.216C140.651 27.688 140.955 28.776 141.563 29.48C142.203 30.184 143.099 30.536 144.251 30.536C144.507 30.536 144.747 30.536 144.971 30.536C145.195 30.504 145.419 30.472 145.643 30.44C146.091 30.376 146.395 30.504 146.555 30.824C146.715 31.112 146.795 31.72 146.795 32.648C146.795 33.448 146.635 34.072 146.315 34.52C145.995 34.968 145.467 35.24 144.731 35.336C144.411 35.368 144.075 35.4 143.723 35.432C143.371 35.464 143.019 35.48 142.667 35.48ZM160.449 35.48C158.017 35.48 155.905 34.984 154.113 33.992C152.321 33 150.929 31.592 149.937 29.768C148.945 27.912 148.449 25.736 148.449 23.24C148.449 21.352 148.721 19.672 149.265 18.2C149.841 16.696 150.657 15.416 151.713 14.36C152.769 13.272 154.033 12.456 155.505 11.912C156.977 11.336 158.625 11.048 160.449 11.048C162.881 11.048 164.993 11.544 166.785 12.536C168.577 13.528 169.969 14.936 170.961 16.76C171.953 18.584 172.449 20.744 172.449 23.24C172.449 25.128 172.161 26.824 171.585 28.328C171.041 29.832 170.241 31.128 169.185 32.216C168.129 33.272 166.865 34.088 165.393 34.664C163.921 35.208 162.273 35.48 160.449 35.48ZM160.449 30.92C161.633 30.92 162.673 30.632 163.569 30.056C164.465 29.48 165.153 28.632 165.633 27.512C166.145 26.36 166.401 24.936 166.401 23.24C166.401 20.68 165.857 18.776 164.769 17.528C163.681 16.248 162.241 15.608 160.449 15.608C159.265 15.608 158.225 15.896 157.329 16.472C156.433 17.016 155.729 17.864 155.217 19.016C154.737 20.136 154.497 21.544 154.497 23.24C154.497 25.768 155.041 27.688 156.129 29C157.217 30.28 158.657 30.92 160.449 30.92ZM194.177 35.384C193.185 35.384 192.401 35.112 191.825 34.568C191.281 33.992 191.009 33.176 191.009 32.12V4.424C191.009 3.368 191.281 2.568 191.825 2.024C192.401 1.448 193.217 1.16 194.273 1.16H211.025C211.857 1.16 212.481 1.368 212.897 1.784C213.313 2.2 213.521 2.792 213.521 3.56C213.521 4.36 213.313 4.984 212.897 5.432C212.481 5.848 211.857 6.056 211.025 6.056H197.153V15.608H210.017C210.817 15.608 211.425 15.816 211.841 16.232C212.289 16.648 212.513 17.24 212.513 18.008C212.513 18.808 212.289 19.432 211.841 19.88C211.425 20.296 210.817 20.504 210.017 20.504H197.153V32.12C197.153 34.296 196.161 35.384 194.177 35.384ZM228.11 35.48C225.454 35.48 223.166 34.984 221.246 33.992C219.326 33 217.838 31.592 216.782 29.768C215.758 27.944 215.246 25.784 215.246 23.288C215.246 20.856 215.742 18.728 216.734 16.904C217.758 15.08 219.15 13.656 220.91 12.632C222.702 11.576 224.734 11.048 227.006 11.048C228.67 11.048 230.158 11.32 231.47 11.864C232.814 12.408 233.95 13.192 234.878 14.216C235.838 15.24 236.558 16.488 237.038 17.96C237.55 19.4 237.806 21.032 237.806 22.856C237.806 23.432 237.598 23.88 237.182 24.2C236.798 24.488 236.238 24.632 235.502 24.632H220.094V21.176H233.582L232.814 21.896C232.814 20.424 232.59 19.192 232.142 18.2C231.726 17.208 231.102 16.456 230.27 15.944C229.47 15.4 228.462 15.128 227.246 15.128C225.902 15.128 224.75 15.448 223.79 16.088C222.862 16.696 222.142 17.576 221.63 18.728C221.15 19.848 220.91 21.192 220.91 22.76V23.096C220.91 25.72 221.518 27.688 222.734 29C223.982 30.28 225.806 30.92 228.206 30.92C229.038 30.92 229.966 30.824 230.99 30.632C232.046 30.408 233.038 30.04 233.966 29.528C234.638 29.144 235.23 28.984 235.742 29.048C236.254 29.08 236.654 29.256 236.942 29.576C237.262 29.896 237.454 30.296 237.518 30.776C237.582 31.224 237.486 31.688 237.23 32.168C237.006 32.648 236.606 33.064 236.03 33.416C234.91 34.12 233.614 34.648 232.142 35C230.702 35.32 229.358 35.48 228.11 35.48ZM245.63 35.384C244.638 35.384 243.87 35.128 243.326 34.616C242.814 34.072 242.558 33.304 242.558 32.312V14.168C242.558 13.176 242.814 12.424 243.326 11.912C243.838 11.4 244.558 11.144 245.486 11.144C246.414 11.144 247.134 11.4 247.646 11.912C248.158 12.424 248.414 13.176 248.414 14.168V17.192H247.934C248.382 15.272 249.262 13.816 250.574 12.824C251.886 11.832 253.63 11.24 255.806 11.048C256.478 10.984 257.006 11.16 257.39 11.576C257.806 11.96 258.046 12.568 258.11 13.4C258.174 14.2 257.982 14.856 257.534 15.368C257.118 15.848 256.478 16.136 255.614 16.232L254.558 16.328C252.606 16.52 251.134 17.128 250.142 18.152C249.15 19.144 248.654 20.552 248.654 22.376V32.312C248.654 33.304 248.398 34.072 247.886 34.616C247.374 35.128 246.622 35.384 245.63 35.384ZM264.426 35.384C263.434 35.384 262.666 35.128 262.122 34.616C261.61 34.072 261.354 33.304 261.354 32.312V14.168C261.354 13.176 261.61 12.424 262.122 11.912C262.634 11.4 263.354 11.144 264.282 11.144C265.21 11.144 265.93 11.4 266.442 11.912C266.954 12.424 267.21 13.176 267.21 14.168V17.192H266.73C267.178 15.272 268.058 13.816 269.37 12.824C270.682 11.832 272.426 11.24 274.602 11.048C275.274 10.984 275.802 11.16 276.186 11.576C276.602 11.96 276.842 12.568 276.906 13.4C276.97 14.2 276.778 14.856 276.33 15.368C275.914 15.848 275.274 16.136 274.41 16.232L273.354 16.328C271.402 16.52 269.93 17.128 268.938 18.152C267.946 19.144 267.45 20.552 267.45 22.376V32.312C267.45 33.304 267.194 34.072 266.682 34.616C266.17 35.128 265.418 35.384 264.426 35.384ZM291.344 35.48C288.688 35.48 286.4 34.984 284.48 33.992C282.56 33 281.072 31.592 280.016 29.768C278.992 27.944 278.48 25.784 278.48 23.288C278.48 20.856 278.976 18.728 279.968 16.904C280.992 15.08 282.384 13.656 284.144 12.632C285.936 11.576 287.968 11.048 290.24 11.048C291.904 11.048 293.392 11.32 294.704 11.864C296.048 12.408 297.184 13.192 298.112 14.216C299.072 15.24 299.792 16.488 300.272 17.96C300.784 19.4 301.04 21.032 301.04 22.856C301.04 23.432 300.832 23.88 300.416 24.2C300.032 24.488 299.472 24.632 298.736 24.632H283.328V21.176H296.816L296.048 21.896C296.048 20.424 295.824 19.192 295.376 18.2C294.96 17.208 294.336 16.456 293.504 15.944C292.704 15.4 291.696 15.128 290.48 15.128C289.136 15.128 287.984 15.448 287.024 16.088C286.096 16.696 285.376 17.576 284.864 18.728C284.384 19.848 284.144 21.192 284.144 22.76V23.096C284.144 25.72 284.752 27.688 285.968 29C287.216 30.28 289.04 30.92 291.44 30.92C292.272 30.92 293.2 30.824 294.224 30.632C295.28 30.408 296.272 30.04 297.2 29.528C297.872 29.144 298.464 28.984 298.976 29.048C299.488 29.08 299.888 29.256 300.176 29.576C300.496 29.896 300.688 30.296 300.752 30.776C300.816 31.224 300.72 31.688 300.464 32.168C300.24 32.648 299.84 33.064 299.264 33.416C298.144 34.12 296.848 34.648 295.376 35C293.936 35.32 292.592 35.48 291.344 35.48ZM308.768 35.336C307.808 35.336 307.072 35.048 306.56 34.472C306.048 33.896 305.792 33.096 305.792 32.072V14.456C305.792 13.4 306.048 12.6 306.56 12.056C307.072 11.48 307.808 11.192 308.768 11.192C309.728 11.192 310.464 11.48 310.976 12.056C311.52 12.6 311.792 13.4 311.792 14.456V32.072C311.792 33.096 311.536 33.896 311.024 34.472C310.512 35.048 309.76 35.336 308.768 35.336ZM308.768 6.728C307.648 6.728 306.768 6.456 306.128 5.912C305.52 5.336 305.216 4.552 305.216 3.56C305.216 2.536 305.52 1.752 306.128 1.208C306.768 0.663999 307.648 0.391999 308.768 0.391999C309.92 0.391999 310.8 0.663999 311.408 1.208C312.016 1.752 312.32 2.536 312.32 3.56C312.32 4.552 312.016 5.336 311.408 5.912C310.8 6.456 309.92 6.728 308.768 6.728ZM321.098 35.384C320.106 35.384 319.338 35.128 318.794 34.616C318.282 34.072 318.026 33.304 318.026 32.312V14.168C318.026 13.176 318.282 12.424 318.794 11.912C319.306 11.4 320.026 11.144 320.954 11.144C321.882 11.144 322.602 11.4 323.114 11.912C323.626 12.424 323.882 13.176 323.882 14.168V17.192H323.402C323.85 15.272 324.73 13.816 326.042 12.824C327.354 11.832 329.098 11.24 331.274 11.048C331.946 10.984 332.474 11.16 332.858 11.576C333.274 11.96 333.514 12.568 333.578 13.4C333.642 14.2 333.45 14.856 333.002 15.368C332.586 15.848 331.946 16.136 331.082 16.232L330.026 16.328C328.074 16.52 326.602 17.128 325.61 18.152C324.618 19.144 324.122 20.552 324.122 22.376V32.312C324.122 33.304 323.866 34.072 323.354 34.616C322.842 35.128 322.09 35.384 321.098 35.384ZM344.317 35.48C342.621 35.48 341.101 35.16 339.757 34.52C338.445 33.848 337.405 32.952 336.637 31.832C335.901 30.712 335.533 29.448 335.533 28.04C335.533 26.312 335.981 24.952 336.877 23.96C337.773 22.936 339.229 22.2 341.245 21.752C343.261 21.304 345.965 21.08 349.357 21.08H351.757V24.536H349.405C347.421 24.536 345.837 24.632 344.653 24.824C343.469 25.016 342.621 25.352 342.109 25.832C341.629 26.28 341.389 26.92 341.389 27.752C341.389 28.808 341.757 29.672 342.493 30.344C343.229 31.016 344.253 31.352 345.565 31.352C346.621 31.352 347.549 31.112 348.349 30.632C349.181 30.12 349.837 29.432 350.317 28.568C350.797 27.704 351.037 26.712 351.037 25.592V20.072C351.037 18.472 350.685 17.32 349.981 16.616C349.277 15.912 348.093 15.56 346.429 15.56C345.501 15.56 344.493 15.672 343.405 15.896C342.349 16.12 341.229 16.504 340.045 17.048C339.437 17.336 338.893 17.416 338.413 17.288C337.965 17.16 337.613 16.904 337.357 16.52C337.101 16.104 336.973 15.656 336.973 15.176C336.973 14.696 337.101 14.232 337.357 13.784C337.613 13.304 338.045 12.952 338.653 12.728C340.125 12.12 341.533 11.688 342.877 11.432C344.253 11.176 345.501 11.048 346.621 11.048C348.925 11.048 350.813 11.4 352.285 12.104C353.789 12.808 354.909 13.88 355.645 15.32C356.381 16.728 356.749 18.552 356.749 20.792V32.312C356.749 33.304 356.509 34.072 356.029 34.616C355.549 35.128 354.861 35.384 353.965 35.384C353.069 35.384 352.365 35.128 351.853 34.616C351.373 34.072 351.133 33.304 351.133 32.312V30.008H351.517C351.293 31.128 350.845 32.104 350.173 32.936C349.533 33.736 348.717 34.36 347.725 34.808C346.733 35.256 345.597 35.48 344.317 35.48Z" fill="#363636"/>
</svg>
